<?xml version="1.0" encoding="UTF-8" standalone="no"?>
<svg width="106px" height="106px" viewBox="0 0 106 106" version="1.1" xmlns="http://www.w3.org/2000/svg" xmlns:xlink="http://www.w3.org/1999/xlink">
    <!-- Generator: Sketch 3.7.2 (28276) - http://www.bohemiancoding.com/sketch -->
    <title>Logo_project2</title>
    <desc>Created with Sketch.</desc>
    <defs></defs>
    <g id="Page-1" stroke="none" stroke-width="1" fill="none" fill-rule="evenodd">
        <g id="A" transform="translate(20.000000, 32.000000)" fill="#000000">
            <path d="M8.65576172,27.3364258 L17.4506836,6.12841797 L26.2456055,27.3364258 L8.65576172,27.3364258 Z M2.31005859,40 C3.0522498,40 3.56249861,39.6567417 3.84082031,38.9702148 L7.29199219,30.6762695 L27.609375,30.6762695 L31.0605469,38.9702148 C31.3388686,39.6567417 31.8491174,40 32.5913086,40 C32.813966,40 33.0273427,39.9536137 33.2314453,39.8608398 C33.6582053,39.6938468 33.9550773,39.3969748 34.1220703,38.9702148 C34.3076181,38.5434549 34.3076181,38.1167014 34.1220703,37.6899414 L30.253418,28.3662109 L30.253418,28.3383789 L18.9814453,1.14648438 C18.9443358,1.05371047 18.8979495,0.951660713 18.8422852,0.840332031 C18.8422852,0.858886812 18.8051762,0.821777808 18.730957,0.729003906 C18.6752927,0.654784785 18.6381837,0.60839853 18.6196289,0.58984375 C18.6010741,0.58984375 18.5546879,0.552734746 18.4804688,0.478515625 C18.4062496,0.422851284 18.3691406,0.395019531 18.3691406,0.395019531 C18.1835928,0.265136069 17.9794933,0.181640811 17.7568359,0.14453125 C17.7753907,0.14453125 17.7290045,0.14453125 17.6176758,0.14453125 C17.5249019,0.12597647 17.4692384,0.116699219 17.4506836,0.116699219 C17.4321288,0.116699219 17.3671881,0.12597647 17.2558594,0.14453125 L17.1166992,0.14453125 C16.9125966,0.181640811 16.7177744,0.265136069 16.5322266,0.395019531 C16.5507813,0.376464751 16.5136723,0.404296504 16.4208984,0.478515625 C16.3466793,0.534179966 16.3002931,0.57128897 16.2817383,0.58984375 C16.2631835,0.60839853 16.2260745,0.654784785 16.1704102,0.729003906 C16.096191,0.803223027 16.059082,0.840332031 16.059082,0.840332031 C16.0034177,0.951660713 15.9570314,1.05371047 15.9199219,1.14648438 L4.64794922,28.3383789 L4.64794922,28.3662109 L0.779296875,37.6899414 C0.593749072,38.1167014 0.593749072,38.5434549 0.779296875,38.9702148 C0.946289897,39.3969748 1.24316193,39.6938468 1.66992187,39.8608398 C1.87402446,39.9536137 2.08740123,40 2.31005859,40 L2.31005859,40 Z"></path>
        </g>
        <g id="N" transform="translate(50.000000, 31.000000)" fill="#000000">
            <path d="M30.0068359,40.5825195 C30.0625003,40.6196291 30.0996093,40.6474608 30.1181641,40.6660156 C30.1738284,40.7031252 30.2387692,40.7402342 30.3129883,40.7773438 C30.3686526,40.8144533 30.4057616,40.8422851 30.4243164,40.8608398 C30.4799807,40.8793946 30.5541988,40.9072264 30.6469727,40.9443359 C30.7211918,40.9628907 30.7583008,40.972168 30.7583008,40.972168 C30.8696295,40.9907227 30.9809565,41 31.0922852,41 C31.1850591,41 31.2871088,40.9907227 31.3984375,40.972168 C31.4169923,40.972168 31.4541013,40.9628907 31.5097656,40.9443359 C31.5839847,40.9257812 31.6489255,40.9072267 31.7045898,40.8886719 C31.7416994,40.8701171 31.7788084,40.8515626 31.815918,40.8330078 C31.8715823,40.814453 31.9272458,40.7866213 31.9829102,40.7495117 C32.0200197,40.7309569 32.0478515,40.7124024 32.0664062,40.6938477 C32.1406254,40.6381833 32.1591799,40.6196288 32.1220703,40.6381836 C32.0849608,40.6752932 32.1127925,40.6567387 32.2055664,40.5825195 L32.3168945,40.4711914 C32.3540041,40.4340818 32.3911131,40.3876956 32.4282227,40.3320312 C32.4653322,40.2763669 32.493164,40.2299807 32.5117188,40.1928711 C32.5488283,40.1557615 32.5766601,40.1093753 32.5952148,40.0537109 C32.6137696,39.9980466 32.6323241,39.9516603 32.6508789,39.9145508 C32.6694337,39.8774412 32.6879882,39.8217777 32.706543,39.7475586 C32.7250977,39.6918943 32.734375,39.645508 32.734375,39.6083984 C32.7529298,39.5527341 32.762207,39.4970706 32.762207,39.4414062 L32.762207,39.3300781 L32.762207,2.67529297 C32.762207,2.21142346 32.6044938,1.82177892 32.2890625,1.50634766 C31.9550765,1.17236161 31.5561547,1.00537109 31.0922852,1.00537109 C30.6469704,1.00537109 30.2573259,1.17236161 29.9233398,1.50634766 C29.6079086,1.82177892 29.4501953,2.21142346 29.4501953,2.67529297 L29.4501953,34.4594727 L3.95605469,1.64550781 C3.4736304,1.01464528 2.85205458,0.829100264 2.09130859,1.08886719 C1.34911738,1.34863411 0.978027344,1.87743742 0.978027344,2.67529297 L0.978027344,39.3300781 C0.978027344,39.7939476 1.14501786,40.1835922 1.47900391,40.4990234 C1.79443517,40.8330095 2.18407971,41 2.64794922,41 C3.11181873,41 3.50146327,40.8330095 3.81689453,40.4990234 C4.15088058,40.1835922 4.31787109,39.7939476 4.31787109,39.3300781 L4.31787109,7.54589844 L29.7841797,40.3598633 L29.8120117,40.3876953 C29.8305665,40.4062501 29.8398438,40.4155273 29.8398438,40.4155273 L30.0068359,40.5825195 L30.0068359,40.5825195 Z"></path>
        </g>
        <circle id="Oval-1" stroke="#000000" stroke-width="3" cx="53" cy="53" r="51"></circle>
    </g>
</svg>